<svg width="40" height="40" viewBox="0 0 40 40" fill="none" xmlns="http://www.w3.org/2000/svg">
<circle cx="20" cy="20" r="20" fill="#FDFDFE"/>
<path d="M8.84609 24.013C8.38323 24.0946 7.91223 24.119 7.425 24.1842L5.93888 19.8167V24.3716C5.47602 24.4205 5.05376 24.4857 4.61523 24.5508V16.2069H5.84961L7.53867 20.9412V16.2069H8.84609V24.013ZM11.4041 19.2626C11.9076 19.2626 12.6791 19.2381 13.1419 19.2381V20.5418C12.5654 20.5418 11.8914 20.5418 11.4041 20.5663V22.5056C12.1675 22.4567 12.9308 22.3915 13.7023 22.367V23.6218L10.1048 23.9071V16.2069H13.7023V17.5107H11.4041V19.2626ZM18.534 17.5107H17.186V23.5079C16.7475 23.5079 16.309 23.5079 15.8868 23.5241V17.5107H14.5388V16.2069H18.5341L18.534 17.5107ZM20.6454 19.1729H22.4239V20.4767H20.6454V23.4346H19.3704V16.2069H23.0004V17.5107H20.6454V19.1729ZM25.1118 22.2937C25.8508 22.31 26.5978 22.3671 27.3206 22.4078V23.6953C26.1594 23.6219 24.9981 23.5486 23.8125 23.5241V16.2069H25.1118V22.2937ZM28.4169 23.7849C28.831 23.8094 29.2696 23.8338 29.6918 23.8827V16.2069H28.4169V23.7849ZM35.3845 16.2069L33.7359 20.1752L35.3845 24.5508C34.8972 24.4857 34.4099 24.396 33.9227 24.3145L32.9888 21.9027L32.0388 24.119C31.5677 24.0375 31.113 24.013 30.6421 23.9478L32.3149 20.1262L30.8044 16.2069H32.2011L33.0538 18.3988L33.9633 16.2069H35.3845Z" fill="#D81F26"/>
</svg>
