<svg width="154" height="30" viewBox="0 0 154 30" fill="none" xmlns="http://www.w3.org/2000/svg">
<path d="M15.0988 29.1908C12.4478 29.1908 10.0133 28.5686 7.79509 27.3243C5.57692 26.0799 3.81862 24.3622 2.52017 22.1711C1.22173 19.9529 0.572513 17.4507 0.572513 14.6645C0.572513 11.9053 1.22173 9.43013 2.52017 7.23901C3.81862 5.02084 5.57692 3.28958 7.79509 2.04524C10.0133 0.800907 12.4478 0.178738 15.0988 0.178738C17.7769 0.178738 20.2114 0.800907 22.4025 2.04524C24.6207 3.28958 26.3655 5.02084 27.6369 7.23901C28.9353 9.43013 29.5845 11.9053 29.5845 14.6645C29.5845 17.4507 28.9353 19.9529 27.6369 22.1711C26.3655 24.3622 24.6207 26.0799 22.4025 27.3243C20.1844 28.5686 17.7498 29.1908 15.0988 29.1908ZM15.0988 24.1187C16.803 24.1187 18.3043 23.74 19.6028 22.9826C20.9012 22.1981 21.9156 21.089 22.646 19.6553C23.3764 18.2217 23.7416 16.558 23.7416 14.6645C23.7416 12.7709 23.3764 11.1208 22.646 9.71416C21.9156 8.28047 20.9012 7.18491 19.6028 6.42748C18.3043 5.67006 16.803 5.29135 15.0988 5.29135C13.3946 5.29135 11.8798 5.67006 10.5543 6.42748C9.25584 7.18491 8.24143 8.28047 7.51106 9.71416C6.78068 11.1208 6.4155 12.7709 6.4155 14.6645C6.4155 16.558 6.78068 18.2217 7.51106 19.6553C8.24143 21.089 9.25584 22.1981 10.5543 22.9826C11.8798 23.74 13.3946 24.1187 15.0988 24.1187ZM48.4183 28.9067L42.1695 17.87H39.4915V28.9067H33.8108V0.584501H44.4418C46.6329 0.584501 48.4994 0.976738 50.0413 1.76121C51.5832 2.51864 52.7329 3.56009 53.4903 4.88559C54.2748 6.18403 54.667 7.64477 54.667 9.26782C54.667 11.1343 54.126 12.825 53.044 14.3399C51.9619 15.8277 50.3524 16.8556 48.2154 17.4237L54.9916 28.9067H48.4183ZM39.4915 13.6095H44.2389C45.7808 13.6095 46.9305 13.2443 47.6879 12.5139C48.4453 11.7565 48.824 10.715 48.824 9.38955C48.824 8.09111 48.4453 7.09023 47.6879 6.38691C46.9305 5.65653 45.7808 5.29135 44.2389 5.29135H39.4915V13.6095Z" fill="white"/>
<path d="M75.8732 14.3804C77.4692 14.678 78.7812 15.476 79.8091 16.7744C80.837 18.0729 81.351 19.5607 81.351 21.2378C81.351 22.7527 80.9723 24.0917 80.2149 25.2549C79.4845 26.391 78.416 27.2837 77.0093 27.9329C75.6027 28.5821 73.9391 28.9067 72.0185 28.9067H59.805V0.584501H71.491C73.4116 0.584501 75.0617 0.895585 76.4413 1.51775C77.8479 2.13992 78.9029 3.00555 79.6062 4.11464C80.3366 5.22372 80.7018 6.48158 80.7018 7.88823C80.7018 9.53833 80.2554 10.9179 79.3628 12.027C78.4971 13.1361 77.3339 13.9206 75.8732 14.3804ZM65.4857 12.2705H70.6794C72.032 12.2705 73.0734 11.9729 73.8038 11.3778C74.5342 10.7556 74.8994 9.87647 74.8994 8.74033C74.8994 7.60419 74.5342 6.72504 73.8038 6.10287C73.0734 5.4807 72.032 5.16962 70.6794 5.16962H65.4857V12.2705ZM71.2069 24.281C72.5865 24.281 73.655 23.9564 74.4125 23.3072C75.1969 22.658 75.5892 21.7383 75.5892 20.548C75.5892 19.3307 75.1834 18.384 74.3719 17.7077C73.5603 17.0044 72.4648 16.6527 71.0852 16.6527H65.4857V24.281H71.2069ZM91.5591 0.584501V28.9067H85.8784V0.584501H91.5591ZM107.072 0.584501C110.048 0.584501 112.658 1.16609 114.903 2.32928C117.176 3.49247 118.921 5.15609 120.138 7.32016C121.382 9.45718 122.004 11.9459 122.004 14.7862C122.004 17.6265 121.382 20.1152 120.138 22.2522C118.921 24.3622 117.176 25.9988 114.903 27.162C112.658 28.3251 110.048 28.9067 107.072 28.9067H97.1716V0.584501H107.072ZM106.869 24.0782C109.845 24.0782 112.144 23.2666 113.767 21.6436C115.39 20.0205 116.202 17.7347 116.202 14.7862C116.202 11.8377 115.39 9.53833 113.767 7.88823C112.144 6.21108 109.845 5.3725 106.869 5.3725H102.852V24.0782H106.869ZM139.403 29.1908C136.752 29.1908 134.318 28.5686 132.1 27.3243C129.881 26.0799 128.123 24.3622 126.825 22.1711C125.526 19.9529 124.877 17.4507 124.877 14.6645C124.877 11.9053 125.526 9.43013 126.825 7.23901C128.123 5.02084 129.881 3.28958 132.1 2.04524C134.318 0.800907 136.752 0.178738 139.403 0.178738C142.081 0.178738 144.516 0.800907 146.707 2.04524C148.925 3.28958 150.67 5.02084 151.941 7.23901C153.24 9.43013 153.889 11.9053 153.889 14.6645C153.889 17.4507 153.24 19.9529 151.941 22.1711C150.67 24.3622 148.925 26.0799 146.707 27.3243C144.489 28.5686 142.054 29.1908 139.403 29.1908ZM139.403 24.1187C141.107 24.1187 142.609 23.74 143.907 22.9826C145.206 22.1981 146.22 21.089 146.95 19.6553C147.681 18.2217 148.046 16.558 148.046 14.6645C148.046 12.7709 147.681 11.1208 146.95 9.71416C146.22 8.28047 145.206 7.18491 143.907 6.42748C142.609 5.67006 141.107 5.29135 139.403 5.29135C137.699 5.29135 136.184 5.67006 134.859 6.42748C133.56 7.18491 132.546 8.28047 131.816 9.71416C131.085 11.1208 130.72 12.7709 130.72 14.6645C130.72 16.558 131.085 18.2217 131.816 19.6553C132.546 21.089 133.56 22.1981 134.859 22.9826C136.184 23.74 137.699 24.1187 139.403 24.1187Z" fill="#D69300"/>
</svg>
