<svg width="57" height="56" viewBox="0 0 57 56" fill="none" xmlns="http://www.w3.org/2000/svg">
<circle cx="28.543" cy="28" r="28" fill="white"/>
<path d="M23.3614 42.5863L23.8937 39.2158L22.708 39.1884H17.0459L20.9807 14.3179C20.9925 14.2419 21.0312 14.1727 21.0898 14.1228C21.1485 14.0729 21.2232 14.0456 21.3003 14.046H30.8474C34.0168 14.046 36.2041 14.7035 37.3461 16.0011C37.8814 16.6099 38.2224 17.246 38.3873 17.9461C38.5603 18.6806 38.5634 19.5583 38.3944 20.6286L38.3822 20.7068V21.3926L38.9176 21.695C39.3263 21.9014 39.6937 22.1806 40.0015 22.5188C40.4596 23.0393 40.7557 23.7008 40.8809 24.4851C41.0102 25.2917 40.9674 26.2515 40.7557 27.3381C40.5115 28.588 40.1166 29.6767 39.5832 30.5675C39.1127 31.3655 38.48 32.0567 37.7257 32.5967C37.0173 33.0979 36.1756 33.4783 35.2239 33.7218C34.3018 33.9613 33.2504 34.082 32.0972 34.082H31.3542C30.8229 34.082 30.3069 34.2728 29.9018 34.6147C29.4973 34.9602 29.229 35.4377 29.1446 35.962L29.0886 36.2654L28.1481 42.2058L28.1054 42.4239C28.0942 42.4929 28.0749 42.5274 28.0464 42.5507C28.0188 42.5732 27.9843 42.5858 27.9487 42.5863H23.3614Z" fill="#253B80"/>
<path d="M39.4283 20.7701C39.3998 20.9519 39.3673 21.1378 39.3306 21.3287C38.0722 27.7791 33.7668 30.0074 28.2681 30.0074H25.4684C24.796 30.0074 24.2293 30.4949 24.1245 31.1571L22.6911 40.2329L22.2852 42.8055C22.269 42.9075 22.2752 43.0119 22.3033 43.1113C22.3314 43.2107 22.3807 43.3029 22.4479 43.3815C22.5151 43.46 22.5985 43.5231 22.6925 43.5664C22.7865 43.6097 22.8887 43.6322 22.9922 43.6322H27.9578C28.5459 43.6322 29.0454 43.2056 29.1379 42.6267L29.1868 42.3748L30.1217 36.4516L30.1817 36.1266C30.2733 35.5457 30.7738 35.1191 31.3618 35.1191H32.1045C36.9155 35.1191 40.6817 33.1691 41.7824 27.5262C42.2423 25.1689 42.0042 23.2006 40.7875 21.8163C40.4018 21.388 39.9413 21.0335 39.4283 20.7701Z" fill="#179BD7"/>
<path d="M38.1362 20.3246C37.7321 20.2086 37.321 20.1181 36.9054 20.0536C36.0842 19.9283 35.2542 19.8683 34.4233 19.8739H26.9013C26.6151 19.8737 26.3382 19.9751 26.1207 20.1598C25.9032 20.3444 25.7595 20.6002 25.7155 20.8809L24.1154 30.9365L24.0693 31.2299C24.1192 30.9097 24.2829 30.6179 24.5308 30.4071C24.7787 30.1964 25.0944 30.0806 25.4209 30.0808H28.2365C33.7665 30.0808 38.0963 27.8526 39.3619 21.4067C39.3998 21.2159 39.4315 21.0301 39.4601 20.8484C39.1262 20.6746 38.7781 20.529 38.4196 20.4129C38.3256 20.382 38.2312 20.3525 38.1362 20.3246Z" fill="#222D65"/>
<path d="M25.7902 20.8467C25.8336 20.5649 25.9766 20.3079 26.1932 20.1226C26.4097 19.9373 26.6855 19.8358 26.9705 19.8367H34.4573C35.3443 19.8367 36.1722 19.8948 36.9278 20.0171C37.4391 20.0975 37.9434 20.2178 38.436 20.3769C38.8077 20.5002 39.1529 20.646 39.4716 20.8141C39.8464 18.4221 39.4686 16.7934 38.1763 15.3187C36.7517 13.6951 34.1803 13 30.8901 13H21.338C20.6659 13 20.0926 13.4892 19.9887 14.1547L16.0101 39.3949C15.9916 39.5121 15.9986 39.6319 16.0308 39.7461C16.0629 39.8603 16.1194 39.9662 16.1963 40.0565C16.2733 40.1467 16.3688 40.2193 16.4764 40.269C16.584 40.3188 16.7011 40.3447 16.8197 40.3448H22.7169L24.1975 30.9428L25.7902 20.8467Z" fill="#253B80"/>
</svg>
